Fortune (2011) aired 2/25/2011

After Zatanna sends a magically spiked bottle of champagne to Clark and Lois for their bachelor/bachlorette parties, the gang blacks out after the toast, only to wake up the next morning and realize they can't remember anything about the night before. While trying to retrace their steps, Lois realizes she lost her engagement ring and drags Oliver back to the Fortune Casino where she thinks she lost it. The two run into Fortune, the eccentric casino owner, who accuses them of stealing money from him. Meanwhile, Clark tells Chloe he has a memory of stealing an armored truck the night before

General
Complete name                    : Smallville S10E15 HDTV_JHW.mp4
Format                           : MPEG-4
Format profile                   : Base Media / Version 2
Codec ID                         : mp42
File size                        : 271 MiB
Duration                         : 41mn 35s
Overall bit rate                 : 911 Kbps
Encoded date                     : UTC 2011-02-25 04:20:46
Tagged date                      : UTC 2011-02-25 04:20:46
Writing library                  : AVS 

Video
ID                               : 1
Format                           : AVC
Format/Info                      : Advanced Video Codec
Format profile                   : Main@L5.1
Format settings, CABAC           : Yes
Format settings, ReFrames        : 2 frames
Codec ID                         : avc1
Codec ID/Info                    : Advanced Video Coding
Duration                         : 41mn 35s
Bit rate mode                    : Variable
Bit rate                         : 787 Kbps
Width                            : 720 pixels
Height                           : 400 pixels
Display aspect ratio             : 16:9
Frame rate mode                  : Constant
Frame rate                       : 29.970 fps
Color space                      : YUV
Chroma subsampling               : 4:2:0
Bit depth                        : 8 bits
Scan type                        : Progressive
Bits/(Pixel*Frame)               : 0.091
Stream size                      : 234 MiB (86%)
Language                         : English
Encoded date                     : UTC 2011-02-25 04:20:46
Tagged date                      : UTC 2011-02-25 04:20:46

Audio
ID                               : 2
Format                           : AAC
Format/Info                      : Advanced Audio Codec
Format profile                   : LC
Codec ID                         : 40
Duration                         : 41mn 35s
Bit rate mode                    : Constant
Bit rate                         : 115 Kbps
Nominal bit rate                 : 96.0 Kbps
Channel(s)                       : 2 channels
Channel positions                : Front: L R
Sampling rate                    : 48.0 KHz
Compression mode                 : Lossy
Stream size                      : 34.2 MiB (13%)
Language                         : English
Encoded date                     : UTC 2011-02-25 04:20:46
Tagged date                      : UTC 2011-02-25 04:20:46
 
http://img9.imageshack.us/img9/773/vlcsnap2011022523h23m18.png
 
http://img228.imageshack.us/img228/4421/vlcsnap2011022523h23m35.png
 
http://img263.imageshack.us/img263/6455/vlcsnap2011022523h23m51.png
 
http://img263.imageshack.us/img263/2633/vlcsnap2011022523h24m38.png
 
http://img151.imageshack.us/img151/9072/vlcsnap2011022523h25m12.png
 
http://img580.imageshack.us/img580/8854/vlcsnap2011022523h25m24.png